<?xml version="1.0" encoding="UTF-8"?>
<svg id="Camada_2" data-name="Camada 2" xmlns="http://www.w3.org/2000/svg" viewBox="0 0 186.7 253.68">
  <defs>
    <style>
      .cls-1 {
        fill: none;
        stroke: #000;
        stroke-miterlimit: 10;
      }
    </style>
  </defs>
  <g id="Camada_1-2" data-name="Camada 1">
    <path d="M166.72,0l-36.36,11.4s-22.43,9.8-22.96,18.87l-3.35,10.88c-3.35,10.88-1.98,15.98-1.5,18.6.47,2.62,34.37-8.93,38.36-9.87,3.99-.94,22.14-15.54,24.23-23.57,2.09-8.03,3.99-15.69,1.59-26.3Z"/>
    <path class="cls-1" d="M100.31,89.69c-10.03-18.26,11.42-49.28,47.96-69.36"/>
    <path d="M0,51.75l37.47-6.93s24.4-1.83,29.12,5.94l8.05,8.05c8.05,8.05,9.22,13.2,10.03,15.73s-34.56,8.18-38.52,9.21c-3.96,1.03-26.84-3.38-32.44-9.5-5.6-6.12-10.86-12-13.7-22.51Z"/>
    <path class="cls-1" d="M103.93,102.32c1.42-19.63-30.18-37.9-70.66-40.84"/>
    <g>
      <polygon points="112.59 91.81 157.85 124 171.1 133.42 171.1 237.43 56.03 237.43 56.03 253.68 186.7 253.68 186.7 124.32 121.37 78.49 112.59 91.81"/>
      <polygon points="91.7 105.8 21.17 145.78 21.17 224.44 78.38 224.44 79.03 192.58 91.7 192.58 91.7 232.89 8.82 232.89 8.82 138.63 83.41 95.4 91.7 105.8"/>
    </g>
  </g>
</svg>